<svg width="582" height="628" viewBox="0 0 582 628" fill="none" xmlns="http://www.w3.org/2000/svg">
<rect x="211.564" width="370.436" height="624.455" fill="#E1E1E1"/>
<rect x="179.63" y="469.189" width="43.9095" height="49.2098" fill="#37B1B1"/>
<rect x="166.058" y="386.042" width="74.2469" height="83.1475" rx="37.1235" fill="#6D9886"/>
<path d="M26.1824 601.343C29.807 617.292 43.4634 627.837 43.4634 627.837C43.4634 627.837 51.2431 612.523 47.6185 596.575C43.9939 580.626 30.3375 570.081 30.3375 570.081C30.3375 570.081 22.5578 585.395 26.1824 601.343Z" fill="#201F30"/>
<path d="M32.2525 598.595C42.994 610.493 43.8577 627.867 43.8577 627.867C43.8577 627.867 27.306 625.952 16.5645 614.054C5.82297 602.156 4.95922 584.782 4.95922 584.782C4.95922 584.782 21.5109 586.697 32.2525 598.595Z" fill="#008080"/>
<path d="M324.881 182.183H242.67V183.432H324.881V182.183Z" fill="black"/>
<path d="M302.567 183.12H301.393V194.676H302.567V183.12Z" fill="black"/>
<path d="M266.746 183.12H265.572V194.676H266.746V183.12Z" fill="black"/>
<path d="M366.575 242.152H284.364V243.402H366.575V242.152Z" fill="black"/>
<path d="M307.852 230.908H306.678V242.465H307.852V230.908Z" fill="black"/>
<path d="M343.673 230.908H342.499V242.465H343.673V230.908Z" fill="#FFCEAE"/>
<path d="M475.799 270.263H393.588V271.513H475.799V270.263Z" fill="black"/>
<path d="M417.076 259.019H415.902V270.576H417.076V259.019Z" fill="#FFCEAE"/>
<path d="M452.897 259.019H451.723V270.576H452.897V259.019Z" fill="black"/>
<path d="M467.578 560.119H385.366V561.368H467.578V560.119Z" fill="black"/>
<path d="M408.856 548.874H407.681V560.431H408.856V548.874Z" fill="#FFCEAE"/>
<path d="M444.676 548.874H443.501V560.431H444.676V548.874Z" fill="black"/>
<path d="M327.231 359.594H245.019V360.843H327.231V359.594Z" fill="black"/>
<path d="M268.508 348.35H267.334V359.906H268.508V348.35Z" fill="black"/>
<path d="M304.329 348.35H303.155V359.906H304.329V348.35Z" fill="black"/>
<path d="M353.069 510.143H270.857V511.393H353.069V510.143Z" fill="black"/>
<path d="M294.347 498.899H293.172V510.456H294.347V498.899Z" fill="black"/>
<path d="M330.167 498.899H328.993V510.456H330.167V498.899Z" fill="black"/>
<path d="M484.608 464.541H402.396V465.79H484.608V464.541Z" fill="black"/>
<path d="M425.885 453.297H424.71V464.854H425.885V453.297Z" fill="#FFCEAE"/>
<path d="M461.706 453.297H460.531V464.854H461.706V453.297Z" fill="black"/>
<path d="M212.611 598.397H73.564V597.333H211.61V545.722H85.2533L79.115 532.118L80.017 531.657L85.8828 544.657H212.611V598.397Z" fill="#201F30"/>
<path d="M92.0705 624.469C97.8714 624.469 102.574 619.466 102.574 613.295C102.574 607.124 97.8714 602.122 92.0705 602.122C86.2695 602.122 81.5669 607.124 81.5669 613.295C81.5669 619.466 86.2695 624.469 92.0705 624.469Z" fill="#3F3D56"/>
<path d="M195.606 624.469C201.407 624.469 206.109 619.466 206.109 613.295C206.109 607.124 201.407 602.122 195.606 602.122C189.805 602.122 185.102 607.124 185.102 613.295C185.102 619.466 189.805 624.469 195.606 624.469Z" fill="#3F3D56"/>
<path d="M317.647 382.906C321.238 382.906 324.149 379.809 324.149 375.989C324.149 372.169 321.238 369.072 317.647 369.072C314.056 369.072 311.145 372.169 311.145 375.989C311.145 379.809 314.056 382.906 317.647 382.906Z" fill="#3F3D56"/>
<path d="M227.483 528.163H71.1933L37.376 410.574H262.309L262.105 411.266L227.483 528.163ZM71.9333 527.099H226.749L260.946 411.638H38.728L71.9333 527.099Z" fill="#201F30"/>
<path d="M158.57 521.793H74.8073L56.6831 458.16H177.235L177.125 458.534L158.57 521.793Z" fill="#008080"/>
<path d="M265.112 400.069L264.145 399.796L270.746 373.329H309.144V374.393H271.515L265.112 400.069Z" fill="#201F30"/>
<path d="M251.069 446.223H48.3042V447.287H251.069V446.223Z" fill="#201F30"/>
<path d="M239.458 485.428H59.5796V486.492H239.458V485.428Z" fill="#201F30"/>
<path d="M150.34 411.106H149.34V527.631H150.34V411.106Z" fill="#201F30"/>
<path d="M195.127 411.073L187.946 527.594L188.944 527.664L196.125 411.142L195.127 411.073Z" fill="#201F30"/>
<path d="M104.574 411.071L103.575 411.141L110.715 527.666L111.713 527.596L104.574 411.071Z" fill="#201F30"/>
<path d="M349.641 198.404C349.641 198.404 358.225 224.395 352.943 228.394C347.66 232.393 370.771 265.048 370.771 265.048L398.505 257.051L383.318 229.727C383.318 229.727 381.337 202.403 381.337 198.404C381.337 194.406 349.641 198.404 349.641 198.404Z" fill="#FFD6BA"/>
<path opacity="0.1" d="M349.641 198.404C349.641 198.404 358.225 224.395 352.943 228.394C347.66 232.393 370.771 265.048 370.771 265.048L398.505 257.051L383.318 229.727C383.318 229.727 381.337 202.403 381.337 198.404C381.337 194.406 349.641 198.404 349.641 198.404Z" fill="black"/>
<path d="M335.232 383.674C335.232 383.674 332.726 416.995 335.232 434.322C337.738 451.65 341.497 499.633 341.497 499.633C341.497 499.633 341.497 590.268 355.279 591.601C369.061 592.934 379.085 594.267 380.338 588.935C381.591 583.604 374.073 580.938 377.832 578.272C381.591 575.607 382.843 566.276 377.832 555.614C372.82 544.951 377.832 436.988 377.832 436.988L401.638 504.965C401.638 504.965 404.143 560.945 406.649 568.942C409.155 576.939 404.143 591.601 412.914 592.934C421.685 594.267 431.708 586.269 436.72 583.604C441.732 580.938 429.202 580.938 431.708 579.605C434.214 578.272 441.732 574.274 439.226 572.941C436.72 571.608 434.214 507.63 434.214 507.63C434.214 507.63 427.323 371.011 418.552 365.68C409.782 360.348 404.143 369.531 404.143 369.531L335.232 383.674Z" fill="#201F30"/>
<path d="M357.784 586.269V596.932C357.784 596.932 346.508 625.917 357.784 625.917C369.061 625.917 377.831 628.921 377.831 624.922V588.935L357.784 586.269Z" fill="#201F30"/>
<path d="M431.708 586.25V596.913C431.708 596.913 442.985 625.898 431.708 625.898C420.432 625.898 411.661 628.902 411.661 624.903V588.916L431.708 586.25Z" fill="#201F30"/>
<path d="M367.181 217.731C379.637 217.731 389.734 206.99 389.734 193.74C389.734 180.489 379.637 169.748 367.181 169.748C354.726 169.748 344.628 180.489 344.628 193.74C344.628 206.99 354.726 217.731 367.181 217.731Z" fill="#FFD6BA"/>
<path d="M360.291 238.391C360.291 238.391 366.555 258.384 376.579 254.385L386.603 250.387L404.144 378.342C404.144 378.342 390.361 399.668 370.314 386.339C350.267 373.01 360.291 238.391 360.291 238.391Z" fill="white"/>
<path d="M377.832 234.392L383.47 221.73C383.47 221.73 416.673 238.391 421.685 243.722C426.697 249.053 426.697 257.051 426.697 257.051L417.926 290.372C417.926 290.372 420.432 363.68 420.432 366.346C420.432 369.012 429.202 383.673 422.938 378.342C416.673 373.01 415.42 367.679 410.408 375.676C405.397 383.673 394.12 393.003 394.12 393.003L377.832 234.392Z" fill="#008080"/>
<path d="M421.685 330.359L417.926 367.679C417.926 367.679 395.373 389.005 400.385 390.338C405.396 391.671 407.902 386.339 407.902 386.339C407.902 386.339 416.673 395.669 421.685 390.338C426.696 385.006 439.226 334.357 439.226 334.357L421.685 330.359Z" fill="#FFD6BA"/>
<path d="M367.663 159.833C362.663 159.642 357.312 159.548 353.097 162.415C351.157 163.853 349.456 165.624 348.063 167.657C343.957 173.178 340.41 180.125 341.935 186.975L343.706 186.24C343.706 188.069 343.324 189.875 342.588 191.527C342.837 190.755 343.672 192.003 343.449 192.783L341.498 199.593C344.705 198.342 348.695 200.874 349.183 204.471C349.406 196.562 350.178 187.492 356.209 182.861C359.25 180.526 363.1 179.813 366.803 179.18C370.22 178.596 373.802 178.039 377.074 179.235C380.347 180.432 383.134 183.992 382.392 187.588C383.901 187.035 385.588 188.154 386.334 189.655C387.08 191.156 387.119 192.926 387.142 194.624C388.75 195.833 390.581 193.432 391.236 191.456C392.775 186.818 394.142 181.881 393.314 177.043C392.485 172.204 388.778 167.58 384.155 167.564C384.716 166.908 385.016 166.046 384.99 165.159L381.179 164.817C382.147 164.671 383.036 164.172 383.696 163.405C382.166 165.196 370.137 159.927 367.663 159.833Z" fill="#201F30"/>
<path d="M366.555 230.393C366.555 230.393 356.356 219.761 352.685 220.412C349.014 221.063 344.003 230.393 344.003 230.393C344.003 230.393 313.932 241.056 315.185 251.719C316.438 262.382 330.22 314.364 330.22 314.364C330.22 314.364 341.497 377.009 331.473 383.673C321.45 390.338 379.085 407.665 380.338 399.668C381.591 391.67 384.097 311.698 380.338 299.703C376.579 287.707 366.555 230.393 366.555 230.393Z" fill="#008080"/>
<path d="M410.408 251.719H425.901C425.901 251.719 436.72 302.368 437.973 307.7C439.226 313.031 441.732 338.356 440.479 338.356C439.226 338.356 414.167 333.024 414.167 337.023L410.408 251.719Z" fill="#008080"/>
<path d="M409.884 377.143H350.574C344.786 348.819 344.302 321.454 350.574 295.309H409.884C400.312 320.984 399.714 348.162 409.884 377.143Z" fill="#EFE5DF"/>
<path d="M326.461 342.354L344.002 350.352C344.002 350.352 377.832 355.683 377.832 341.021C377.832 326.36 344.002 334.357 344.002 334.357L332.725 330.521L326.461 342.354Z" fill="#FFD6BA"/>
<path d="M330.22 243.722L315.185 247.721L303.908 318.363C303.908 318.363 300.149 337.023 306.414 338.356C312.679 339.689 330.22 350.352 330.22 350.352C330.22 350.352 332.726 330.359 337.737 330.359L325.208 319.696L332.726 273.045L330.22 243.722Z" fill="#008080"/>
<path d="M117.591 380.208H35.3794V381.458H117.591V380.208Z" fill="black"/>
<path d="M58.8688 368.964H57.6943V380.521H58.8688V368.964Z" fill="black"/>
<path d="M94.6893 368.964H93.5149V380.521H94.6893V368.964Z" fill="black"/>
<path d="M146.365 195.301H64.1536V196.551H146.365V195.301Z" fill="black"/>
<path d="M124.051 196.238H122.876V207.795H124.051V196.238Z" fill="black"/>
<path d="M88.2301 196.238H87.0557V207.795H88.2301V196.238Z" fill="black"/>
<path d="M229.164 318.364H146.952V319.614H229.164V318.364Z" fill="black"/>
<path d="M206.849 319.302H205.675V330.858H206.849V319.302Z" fill="black"/>
<path d="M171.029 319.302H169.854V330.858H171.029V319.302Z" fill="black"/>
<path d="M89.4045 317.74H7.19287V318.989H89.4045V317.74Z" fill="black"/>
<path d="M67.0902 318.677H65.9158V330.234H67.0902V318.677Z" fill="black"/>
<path d="M31.2687 318.677H30.0942V330.234H31.2687V318.677Z" fill="black"/>
<path d="M188.058 255.271H105.847V256.52H188.058V255.271Z" fill="black"/>
<path d="M129.336 244.027H128.162V255.583H129.336V244.027Z" fill="black"/>
<path d="M165.157 244.027H163.982V255.583H165.157V244.027Z" fill="black"/>
</svg>
