<?xml version="1.0" standalone="no"?>
<!DOCTYPE svg PUBLIC "-//W3C//DTD SVG 20010904//EN"
 "http://www.w3.org/TR/2001/REC-SVG-20010904/DTD/svg10.dtd">
<svg version="1.0" xmlns="http://www.w3.org/2000/svg"
 width="1557.656593pt" height="1041.059410pt" viewBox="0 0 1557.656593 1041.059410"
 preserveAspectRatio="xMidYMid meet">

<g transform="translate(-222.044058,1592.707418) scale(0.100000,-0.100000)"
fill="#000000" stroke="none">
<path d="M10880 15915 c-231 -20 -297 -31 -545 -86 -335 -75 -608 -176 -860
-317 -317 -177 -450 -268 -710 -488 -316 -266 -507 -480 -731 -819 -253 -382
-423 -805 -509 -1265 -41 -217 -44 -225 -80 -224 -16 1 -55 9 -85 19 -30 9
-73 20 -95 25 -285 56 -267 54 -565 54 -291 1 -299 0 -500 -45 -364 -81 -784
-299 -1090 -565 -444 -385 -764 -928 -849 -1439 -10 -60 -24 -161 -32 -223 -7
-62 -18 -120 -24 -128 -9 -13 -48 -16 -220 -19 -209 -3 -221 -4 -414 -51 -415
-101 -876 -469 -1117 -892 -71 -124 -153 -346 -190 -517 -64 -291 -57 -641 20
-925 39 -148 120 -348 190 -474 203 -362 621 -679 1036 -785 190 -49 456 -64
620 -36 102 17 123 23 313 86 183 61 222 63 275 15 39 -35 57 -60 185 -256
181 -276 381 -471 665 -649 212 -133 539 -269 792 -330 221 -54 319 -64 615
-65 244 0 295 3 400 22 119 21 136 25 248 55 541 146 1031 464 1442 935 16 17
34 32 42 32 7 0 44 -22 81 -49 172 -124 437 -271 692 -384 611 -269 1406 -399
2010 -327 204 24 376 53 535 89 516 118 1111 400 1556 737 142 107 187 134
228 134 36 0 90 -21 311 -117 243 -106 493 -178 775 -225 108 -18 517 -18 605
0 36 7 99 20 140 29 401 83 773 294 1106 627 146 147 224 243 320 398 159 258
237 462 303 798 37 187 37 488 1 700 -18 108 -24 135 -51 235 -87 316 -237
577 -458 795 -163 160 -336 278 -504 342 -28 11 -81 31 -117 45 -36 13 -74 27
-85 30 -53 15 -70 39 -89 124 -29 129 -81 281 -135 392 -153 315 -409 567
-746 735 -173 87 -462 176 -606 188 -44 4 -87 13 -96 19 -15 11 -18 47 -25
321 -8 335 -18 453 -62 694 -102 568 -301 1043 -619 1480 -100 137 -198 260
-263 330 -23 25 -54 60 -70 79 -73 87 -342 321 -504 438 -529 379 -1068 594
-1700 677 -270 36 -509 42 -760 21z m506 -670 c520 -48 1001 -200 1390 -440
353 -218 608 -449 826 -750 128 -176 295 -477 388 -700 93 -223 131 -369 192
-725 17 -101 17 -576 0 -690 -34 -226 -47 -292 -104 -520 -74 -301 -75 -305
-53 -330 23 -25 55 -25 130 1 181 63 425 109 574 109 89 0 259 -29 352 -60
221 -74 480 -260 591 -423 45 -66 138 -248 138 -269 0 -8 4 -18 8 -23 9 -10
34 -102 52 -193 16 -86 12 -268 -10 -401 -23 -135 -18 -169 23 -156 79 23 135
35 229 51 103 17 111 17 211 1 57 -10 121 -24 143 -32 290 -100 482 -311 599
-658 58 -174 69 -243 69 -427 0 -209 -21 -312 -107 -520 -81 -198 -244 -425
-421 -587 -129 -118 -352 -254 -515 -313 -278 -102 -636 -107 -961 -15 -25 7
-65 18 -90 26 -118 33 -348 132 -575 245 -293 146 -320 153 -400 105 -27 -16
-124 -91 -215 -167 -269 -224 -426 -335 -675 -479 -151 -87 -410 -215 -436
-215 -5 0 -17 -4 -27 -10 -61 -34 -387 -124 -577 -160 -33 -6 -82 -15 -108
-21 -108 -21 -304 -34 -507 -34 -282 0 -395 13 -735 87 -58 13 -292 80 -380
110 -313 105 -722 319 -1033 542 -53 39 -133 93 -177 120 -75 48 -84 51 -145
51 -58 0 -71 -4 -118 -36 -29 -19 -166 -148 -305 -285 -139 -138 -279 -273
-312 -301 -158 -132 -352 -261 -532 -352 -339 -172 -721 -226 -1128 -160 -106
17 -146 26 -270 58 -55 14 -219 83 -291 121 -191 103 -320 196 -449 325 -187
186 -293 340 -441 634 -179 358 -231 387 -458 258 -298 -170 -597 -257 -833
-243 -108 6 -151 14 -275 52 -326 100 -577 352 -691 694 -49 147 -60 223 -60
405 1 229 27 336 134 542 157 302 398 486 757 579 101 27 119 28 317 28 180
-1 223 -4 304 -23 136 -31 200 -55 350 -127 143 -68 177 -76 206 -44 22 24 16
69 -33 250 -98 362 -94 716 11 1065 116 382 398 754 752 990 331 221 665 325
1043 325 321 0 560 -58 866 -212 133 -67 230 -132 351 -238 55 -48 111 -92
123 -99 34 -18 61 -8 107 39 l39 40 -12 107 c-6 60 -21 167 -33 238 -18 110
-22 172 -22 405 -1 244 2 288 21 390 74 387 164 623 351 925 240 387 527 691
915 968 346 247 646 380 1116 498 108 27 445 66 581 68 53 0 167 -6 255 -14z"/>
</g>
</svg>
