<svg width="31" height="34" viewBox="0 0 31 34" fill="none" xmlns="http://www.w3.org/2000/svg">
<path d="M5.89602 24.6036L5.75474 24.8878L5.95179 25.1366C8.23719 28.0222 11.6639 29.8801 15.5 29.8801C19.3361 29.8801 22.7628 28.0222 25.0482 25.1366L25.2453 24.8878L25.104 24.6036C23.856 22.093 21.3955 20.3332 18.5 20.3332C18.291 20.3332 18.0887 20.3703 17.9016 20.4311L17.9016 20.431L17.892 20.4344C17.1262 20.7007 16.3261 20.8674 15.5 20.8674C14.6744 20.8674 13.8803 20.701 13.1069 20.434L13.1069 20.4339L13.0984 20.4311C12.9113 20.3703 12.709 20.3332 12.5 20.3332C9.60449 20.3332 7.14404 22.093 5.89602 24.6036ZM0.5 16.5597C0.5 7.65629 7.24427 0.5 15.5 0.5C23.7557 0.5 30.5 7.65629 30.5 16.5597C30.5 25.4631 23.7557 32.6194 15.5 32.6194C7.24427 32.6194 0.5 25.4631 0.5 16.5597ZM21.5 12.2862C21.5 8.79659 18.8443 5.91021 15.5 5.91021C12.1557 5.91021 9.5 8.79659 9.5 12.2862C9.5 15.7759 12.1557 18.6623 15.5 18.6623C18.8443 18.6623 21.5 15.7759 21.5 12.2862Z" fill="#F8F8F8" stroke="black"/>
</svg>
