<svg width="106" height="64" viewBox="0 0 106 64" fill="none" xmlns="http://www.w3.org/2000/svg">
<path d="M42.696 63.208C40.264 63.208 38.472 62.376 37.32 60.712C36.232 59.048 35.688 56.872 35.688 54.184C35.688 52.136 35.976 49.928 36.552 47.56C37.256 44.616 38.12 41.672 39.144 38.728C37.16 42.12 35.24 45.352 33.384 48.424C31.528 51.432 30.184 53.576 29.352 54.856C28.008 56.968 26.44 58.76 24.648 60.232C22.92 61.64 21.064 62.344 19.08 62.344C18.632 62.344 18.216 62.28 17.832 62.152C17.448 62.088 17.032 61.992 16.584 61.864C14.6 61.16 13.032 60.104 11.88 58.696C10.792 57.224 10.248 55.304 10.248 52.936C10.248 52.36 10.28 51.752 10.344 51.112C10.472 50.408 10.6 49.704 10.728 49C11.304 46.632 12.392 43.752 13.992 40.36C15.592 36.968 17.544 33.256 19.848 29.224C22.152 25.192 24.648 21.064 27.336 16.84C27.528 16.52 27.912 15.816 28.488 14.728C29.064 13.64 29.608 12.488 30.12 11.272C30.696 10.056 30.984 9.128 30.984 8.488C30.984 7.91199 30.696 7.72 30.12 7.912C29.032 8.296 27.752 9.128 26.28 10.408C24.808 11.688 23.208 13.16 21.48 14.824C19.752 16.488 17.928 18.12 16.008 19.72C14.152 21.256 12.232 22.568 10.248 23.656C8.328 24.68 6.44 25.192 4.584 25.192C4.136 25.192 3.656 25.16 3.144 25.096C2.696 25.032 2.216 24.904 1.704 24.712C0.68 24.392 0.168 23.432 0.168 21.832C0.168 20.36 0.584 18.632 1.416 16.648C2.312 14.664 3.368 12.712 4.584 10.792C5.288 9.768 6.088 9.256 6.984 9.256C7.368 9.256 7.56 9.448 7.56 9.832C7.56 10.088 7.464 10.408 7.272 10.792C7.08 11.176 6.984 11.496 6.984 11.752C6.984 12.648 7.752 13.096 9.288 13.096C10.568 13.096 12.232 12.648 14.28 11.752C16.392 10.856 18.696 9.768 21.192 8.488C23.752 7.144 26.312 5.832 28.872 4.552C31.432 3.272 33.8 2.28 35.976 1.576C38.152 0.807997 39.944 0.551996 41.352 0.807997C42.44 1.064 43.368 1.704 44.136 2.72799C44.904 3.752 45.416 4.744 45.672 5.704C45.8 6.088 45.864 6.44 45.864 6.76C45.864 7.784 45.512 8.904 44.808 10.12C44.168 11.336 43.336 12.584 42.312 13.864C39.688 17.256 37.032 20.904 34.344 24.808C31.72 28.648 29.352 32.648 27.24 36.808C25.192 40.904 23.688 45.064 22.728 49.288C22.536 50.12 22.44 50.824 22.44 51.4C22.44 52.488 22.76 53.032 23.4 53.032C24.04 53.032 24.84 52.648 25.8 51.88C26.824 51.048 27.88 50.056 28.968 48.904C30.056 47.752 30.984 46.632 31.752 45.544C32.456 44.584 33.448 43.048 34.728 40.936C36.072 38.76 37.544 36.36 39.144 33.736C40.744 31.112 42.312 28.488 43.848 25.864C45.384 23.176 46.728 20.808 47.88 18.76C48.968 16.904 49.864 15.272 50.568 13.864C51.272 12.456 51.816 11.432 52.2 10.792C53.416 8.744 54.472 7.24 55.368 6.27999C56.264 5.32 57.32 4.68 58.536 4.36C59.752 3.976 61.384 3.752 63.432 3.688C65.672 3.624 67.24 3.784 68.136 4.168C69.096 4.552 69.384 5 69 5.512C67.336 7.816 65.672 10.44 64.008 13.384C62.408 16.328 60.872 19.336 59.4 22.408C57.928 25.416 56.552 28.232 55.272 30.856C53.608 34.376 52.136 37.96 50.856 41.608C49.64 45.192 48.68 48.52 47.976 51.592C47.336 54.664 47.016 57.16 47.016 59.08C47.016 60.68 47.24 61.736 47.688 62.248C45.832 62.888 44.168 63.208 42.696 63.208Z" fill="#FA4616"/>
<path d="M78.0157 61.96C75.2638 61.96 72.5438 61.64 69.8558 61C67.2318 60.36 64.8958 59.4 62.8478 58.12C62.1438 57.608 61.6638 56.872 61.4078 55.912C61.1518 54.888 61.0238 53.672 61.0238 52.264C61.0238 49.768 61.5038 46.824 62.4638 43.432C63.4238 39.976 64.6398 36.424 66.1118 32.776C67.5838 29.128 69.1198 25.672 70.7198 22.408C72.3198 19.144 73.7598 16.456 75.0398 14.344C76.2558 12.488 77.7598 11.208 79.5518 10.504C81.3438 9.736 83.2318 9.352 85.2158 9.352C89.5038 9.352 91.3278 9.736 90.6878 10.504C89.3438 12.04 87.9358 14.056 86.4638 16.552C84.9918 19.048 83.6158 21.608 82.3358 24.232C81.0558 26.792 79.9678 29.032 79.0718 30.952C76.9598 35.432 75.1038 39.816 73.5038 44.104C71.9038 48.328 70.8158 51.752 70.2398 54.376C70.1118 54.888 70.0478 55.304 70.0478 55.624C70.0478 56.328 70.2718 56.968 70.7198 57.544C71.1678 58.056 71.9678 58.408 73.1198 58.6C73.5678 58.664 73.9838 58.728 74.3678 58.792C74.8158 58.792 75.2638 58.792 75.7118 58.792C78.1438 58.792 80.3838 58.184 82.4318 56.968C84.4798 55.752 85.7598 53.992 86.2718 51.688C86.4638 50.92 86.5278 50.088 86.4638 49.192C86.4638 47.656 86.2398 45.96 85.7918 44.104C85.3438 42.248 84.6718 40.52 83.7758 38.92C82.9438 37.32 81.8558 36.136 80.5118 35.368C79.8718 34.984 79.5518 34.536 79.5518 34.024C79.5518 33.448 79.9038 33.096 80.6078 32.968C82.1438 32.968 83.7118 32.36 85.3118 31.144C86.9758 29.928 88.4798 28.328 89.8238 26.344C91.2318 24.36 92.3518 22.216 93.1838 19.912C94.0798 17.544 94.5278 15.272 94.5278 13.096C94.5278 10.024 93.5998 7.912 91.7438 6.76C89.9518 5.544 87.8078 4.936 85.3118 4.936C83.1998 4.936 81.0238 5.256 78.7838 5.896C76.5438 6.472 74.5918 7.144 72.9278 7.912C69.3438 9.576 66.3358 11.72 63.9038 14.344C61.5358 16.968 60.1598 19.528 59.7758 22.024C59.4558 21.896 58.8478 21.736 57.9518 21.544C57.0558 21.352 56.1598 20.968 55.2638 20.392C54.4318 19.816 53.9518 18.984 53.8238 17.896C53.6318 15.656 54.1758 13.672 55.4558 11.944C56.7998 10.152 58.6238 8.648 60.9278 7.432C63.2958 6.152 65.8878 5.096 68.7038 4.264C71.5838 3.432 74.4958 2.824 77.4398 2.44C80.3838 2.056 83.1358 1.86399 85.6958 1.86399C86.7838 1.86399 87.8078 1.896 88.7678 1.96C89.7278 2.024 90.5918 2.12 91.3598 2.248C96.4798 3.08 100.16 4.744 102.4 7.24C104.64 9.672 105.76 12.392 105.76 15.4C105.76 18.088 104.96 20.744 103.36 23.368C101.76 25.928 99.5518 28.104 96.7358 29.896C93.9838 31.624 90.8158 32.584 87.2318 32.776C90.9438 33.608 93.7918 35.4 95.7758 38.152C97.8238 40.84 98.8478 43.752 98.8478 46.888C98.8478 49.512 98.0798 52.04 96.5438 54.472C95.0078 56.904 92.5438 58.76 89.1518 60.04C85.8238 61.32 82.1118 61.96 78.0157 61.96Z" fill="#0021A5"/>
</svg>
